<svg width="1920" height="433" viewBox="0 0 1920 433" fill="none" xmlns="http://www.w3.org/2000/svg">
<path fill-rule="evenodd" clip-rule="evenodd" d="M1257.06 341.499C1325.93 341.499 1381.76 285.668 1381.76 216.796C1381.76 147.925 1325.93 92.0933 1257.06 92.0933C1188.19 92.0933 1132.35 147.925 1132.35 216.796C1132.35 285.668 1188.19 341.499 1257.06 341.499ZM1257.06 432.948C1376.43 432.948 1473.21 336.173 1473.21 216.796C1473.21 97.4189 1376.43 0.644531 1257.06 0.644531C1137.68 0.644531 1040.91 97.4189 1040.91 216.796C1040.91 336.173 1137.68 432.948 1257.06 432.948Z" fill="#37DE85"/>
<path fill-rule="evenodd" clip-rule="evenodd" d="M1703.84 341.499C1772.72 341.499 1828.55 285.668 1828.55 216.796C1828.55 147.925 1772.72 92.0933 1703.84 92.0933C1634.97 92.0933 1579.14 147.925 1579.14 216.796C1579.14 285.668 1634.97 341.499 1703.84 341.499ZM1703.84 432.948C1823.22 432.948 1920 336.173 1920 216.796C1920 97.4189 1823.22 0.644531 1703.84 0.644531C1584.47 0.644531 1487.69 97.4189 1487.69 216.796C1487.69 336.173 1584.47 432.948 1703.84 432.948Z" fill="#37DE85"/>
<path fill-rule="evenodd" clip-rule="evenodd" d="M432.579 221.697C432.615 220.068 432.633 218.434 432.633 216.796C432.633 215.158 432.615 213.524 432.579 211.895V208.467H432.476C428.099 92.9498 333.07 0.644531 216.482 0.644531C97.1044 0.644531 0.330078 97.4189 0.330078 216.796C0.330078 333.721 93.1687 428.961 209.153 432.826V432.932H213.863C214.735 432.942 215.608 432.948 216.482 432.948C217.356 432.948 218.228 432.942 219.1 432.932H432.579V221.697ZM217.613 341.496C217.226 341.5 216.838 341.501 216.45 341.501C216.062 341.501 215.674 341.5 215.287 341.496H212.273V341.433C145.335 339.23 91.7471 284.272 91.7471 216.799C91.7471 147.927 147.578 92.0958 216.45 92.0958C283.714 92.0958 338.539 145.351 341.062 211.997H341.173V341.496H217.613Z" fill="#37DE85"/>
<path d="M921.281 0.644531H1012.73V424.634H921.281V0.644531Z" fill="#37DE85"/>
<path d="M889.885 92.0933L889.885 0.64454L1012.79 0.644534V92.0933L889.885 92.0933Z" fill="#37DE85"/>
<path fill-rule="evenodd" clip-rule="evenodd" d="M518.635 0.625H424.359L523.716 345.062C538.727 397.099 586.352 432.928 640.511 432.928C694.669 432.928 742.295 397.099 757.306 345.062L856.662 0.625H765.354L664.916 321.522C661.195 333.408 650.185 341.499 637.73 341.499C625.018 341.499 613.845 333.076 610.345 320.855L518.635 0.625Z" fill="#37DE85"/>
</svg>
